/* XPM */
static char *_1665736920[] = {
/* columns rows colors chars-per-pixel */
"32 32 8 1 ",
"  c None",
". c #EAE178",
"X c #5C4E92",
"o c #766DAA",
"O c #E8B5AC",
"+ c #DDD5DE",
"@ c #F3D8C5",
"# c #F3F2C0",
/* pixels */
"                                ",
"                                ",
"                                ",
"                                ",
"                                ",
"                                ",
"                                ",
"                                ",
"           XXX    XXX           ",
"          X###X  X###X          ",
"          XOO#XXXX#OOX          ",
"          XOO#++++#OOX          ",
"          X###++++###X          ",
"          X###++++###X          ",
"         XX##########XX         ",
"          X#X######X#X          ",
"         XX##########XX         ",
"          X@@######@@X          ",
"          XXXooooooXX           ",
"          X+#oo.#ooXX           ",
"           X###..###+X          ",
"            X#####X#+X          ",
"            X++XXXXXXX          ",
"             XX                 ",
"                                ",
"                                ",
"                                ",
"                                ",
"                                ",
"                                ",
"                                ",
"                                "
};
