/* XPM */
static char *c1665737406[] = {
/* columns rows colors chars-per-pixel */
"16 16 10 1 ",
"  c None",
". c #4C468B",
"X c #555793",
"o c #5F699C",
"O c #7180B1",
"+ c #8599C7",
"@ c #B4C8C6",
"# c #CBE0DE",
"$ c #DCE0D2",
"% c #F3F4E7",
/* pixels */
"                ",
"     %%%%%%     ",
"    %XXXXX.%    ",
"   %X++++OO.%   ",
"    %......%    ",
"   %+#%###@+%   ",
"   %+%####@+%   ",
"   %+#####@+%   ",
"  %+%%%%%%$$O%  ",
"  %+%%%%%%$$O%  ",
"  %O%%%%%%$$o%  ",
"  %O%%%%%%$$o%  ",
"  %O%%%%%$$$o%  ",
"  %o%%$$$$$$o%  ",
"   %oooooooo%   ",
"    %%%%%%%%    "
};
